<svg width="28" height="28" viewBox="0 0 28 28" fill="none" xmlns="http://www.w3.org/2000/svg">
<circle cx="14" cy="14" r="14" fill="#7F3BF5"/>
<g clip-path="url(#clip0_11418_4897)">
<path d="M10.6771 16.625H17.3224C17.4683 16.5375 17.6252 16.4675 17.7914 16.4179V15.4584C17.7914 15.3036 17.73 15.1553 17.6206 15.0459C17.5112 14.9365 17.3628 14.875 17.2081 14.875H10.7914C10.6367 14.875 10.4884 14.9365 10.379 15.0459C10.2696 15.1553 10.2081 15.3036 10.2081 15.4584V16.4179C10.3744 16.4675 10.5316 16.5375 10.6771 16.625ZM9.04145 16.4179V15.4584C9.04145 14.9942 9.22582 14.5491 9.55401 14.2209C9.8822 13.8927 10.3273 13.7084 10.7914 13.7084H13.4164V12.4682C12.8666 12.3262 12.3873 11.9886 12.0686 11.5185C11.7499 11.0485 11.6135 10.4783 11.685 9.91493C11.7566 9.35154 12.0312 8.83359 12.4573 8.45816C12.8834 8.08274 13.4319 7.87561 13.9998 7.87561C14.5677 7.87561 15.1161 8.08274 15.5423 8.45816C15.9684 8.83359 16.243 9.35154 16.3145 9.91493C16.3861 10.4783 16.2497 11.0485 15.931 11.5185C15.6122 11.9886 15.133 12.3262 14.5831 12.4682V13.7084H17.2081C17.6722 13.7084 18.1174 13.8927 18.4455 14.2209C18.7737 14.5491 18.9581 14.9942 18.9581 15.4584V16.4179C19.4069 16.5517 19.7961 16.8357 20.0604 17.2224C20.3247 17.609 20.448 18.0747 20.4097 18.5415C20.3714 19.0083 20.1738 19.4477 19.85 19.7861C19.5262 20.1244 19.0959 20.3412 18.6313 20.4C18.1667 20.4588 17.696 20.3561 17.2981 20.1091C16.9002 19.8621 16.5993 19.4858 16.4459 19.0434C16.2925 18.6009 16.2958 18.1191 16.4554 17.6788C16.615 17.2385 16.9211 16.8664 17.3224 16.625H10.6771C11.0784 16.8664 11.3845 17.2385 11.5441 17.6788C11.7037 18.1191 11.7071 18.6009 11.5537 19.0434C11.4003 19.4858 11.0994 19.8621 10.7015 20.1091C10.3036 20.3561 9.83286 20.4588 9.36824 20.4C8.90362 20.3412 8.47334 20.1244 8.14955 19.7861C7.82577 19.4477 7.62816 19.0083 7.58985 18.5415C7.55155 18.0747 7.67488 17.609 7.93917 17.2224C8.20345 16.8357 8.59263 16.5517 9.04145 16.4179Z" fill="white"/>
</g>
<defs>
<clipPath id="clip0_11418_4897">
<rect width="14" height="14" fill="white" transform="translate(7 7)"/>
</clipPath>
</defs>
</svg>
