<svg width="16" height="16" viewBox="0 0 16 16" fill="none" xmlns="http://www.w3.org/2000/svg">
<g clip-path="url(#clip0_18854_4748)">
<path d="M7.99984 13.9994C4.68613 13.9994 1.99984 11.3132 1.99984 7.99965C1.99984 4.68608 4.68613 1.9999 7.99984 1.9999C11.3135 1.9999 13.9998 4.68608 13.9998 7.99965C13.9998 11.3132 11.3135 13.9994 7.99984 13.9994ZM7.99984 15.3327C12.0499 15.3327 15.3332 12.0496 15.3332 7.99965C15.3332 3.94973 12.0499 0.666626 7.99984 0.666626C3.94975 0.666626 0.666504 3.94973 0.666504 7.99965C0.666504 12.0496 3.94975 15.3327 7.99984 15.3327Z" fill="#646A73"/>
<path d="M4.6665 7.66633C4.6665 7.48225 4.81574 7.33302 4.99984 7.33302H10.9998C11.1839 7.33302 11.3332 7.48225 11.3332 7.66633V8.33297C11.3332 8.51706 11.1839 8.66629 10.9998 8.66629H4.99984C4.81574 8.66629 4.6665 8.51706 4.6665 8.33297V7.66633Z" fill="#646A73"/>
</g>
<defs>
<clipPath id="clip0_18854_4748">
<rect width="16" height="15.9993" fill="white"/>
</clipPath>
</defs>
</svg>
