<svg width="40" height="40" viewBox="0 0 40 40" fill="none" xmlns="http://www.w3.org/2000/svg">
<path d="M0 20C0 10.5719 0 5.85786 2.92893 2.92893C5.85786 0 10.5719 0 20 0C29.4281 0 34.1421 0 37.0711 2.92893C40 5.85786 40 10.5719 40 20C40 29.4281 40 34.1421 37.0711 37.0711C34.1421 40 29.4281 40 20 40C10.5719 40 5.85786 40 2.92893 37.0711C0 34.1421 0 29.4281 0 20Z" fill="#EBF1FF"/>
<path fill-rule="evenodd" clip-rule="evenodd" d="M20 10.4511C25.8486 10.4513 30.5894 15.1931 30.5896 21.0417C30.5894 26.8902 25.8486 31.6311 20 31.6313C14.1514 31.6311 9.40954 26.8903 9.40936 21.0417C9.40949 15.193 14.1513 10.4512 20 10.4511ZM19.354 15.4966C19.0664 15.4967 18.8332 15.7299 18.8332 16.0175L18.8322 21.2299C18.8321 21.5061 18.942 21.772 19.1373 21.9674L22.8167 25.6468C23.0201 25.8501 23.3498 25.8501 23.5532 25.6468L24.2897 24.9103C24.4931 24.7069 24.4931 24.3772 24.2897 24.1738L21.0681 20.9511C20.9705 20.8535 20.9155 20.721 20.9155 20.5829L20.9165 16.0175C20.9165 15.7299 20.6833 15.4966 20.3957 15.4966H19.354Z" fill="#3370FF"/>
<path d="M13.5317 10.0069C13.6989 10.241 13.6447 10.5663 13.4106 10.7334L10.6124 12.7322C10.3783 12.8993 10.053 12.8451 9.88584 12.6111L9.28077 11.764C9.11358 11.5299 9.16779 11.2046 9.40186 11.0374L12.2001 9.0387C12.4341 8.87151 12.7594 8.92573 12.9266 9.1598L13.5317 10.0069Z" fill="#3370FF"/>
<path d="M30.5981 11.0374C30.8321 11.2046 30.8864 11.5299 30.7192 11.764L30.1141 12.6111C29.9469 12.8451 29.6216 12.8993 29.3875 12.7322L26.5894 10.7334C26.3553 10.5663 26.3011 10.241 26.4683 10.0069L27.0733 9.1598C27.2405 8.92573 27.5658 8.87151 27.7999 9.0387L30.5981 11.0374Z" fill="#3370FF"/>
</svg>
