<svg width="16" height="16" viewBox="0 0 16 16" fill="none" xmlns="http://www.w3.org/2000/svg">
<path d="M10.6667 2.00008H3.33333V14.0001H12.6667V4.01308H11C10.9116 4.01308 10.8268 3.97796 10.7643 3.91545C10.7018 3.85294 10.6667 3.76815 10.6667 3.67975V2.00008ZM2.66667 0.666748H11.3903C11.4779 0.666723 11.5647 0.683961 11.6456 0.717478C11.7265 0.750994 11.8001 0.800132 11.862 0.862081L13.805 2.80575C13.9299 2.9308 14.0001 3.10033 14 3.27708V14.6667C14 14.8436 13.9298 15.0131 13.8047 15.1381C13.6797 15.2632 13.5101 15.3334 13.3333 15.3334H2.66667C2.48986 15.3334 2.32029 15.2632 2.19526 15.1381C2.07024 15.0131 2 14.8436 2 14.6667V1.33341C2 1.1566 2.07024 0.987034 2.19526 0.86201C2.32029 0.736986 2.48986 0.666748 2.66667 0.666748ZM5.33333 6.66675H10.6667C10.7551 6.66675 10.8399 6.70187 10.9024 6.76438C10.9649 6.82689 11 6.91167 11 7.00008V7.66675C11 7.75515 10.9649 7.83994 10.9024 7.90245C10.8399 7.96496 10.7551 8.00008 10.6667 8.00008H5.33333C5.24493 8.00008 5.16014 7.96496 5.09763 7.90245C5.03512 7.83994 5 7.75515 5 7.66675V7.00008C5 6.91167 5.03512 6.82689 5.09763 6.76438C5.16014 6.70187 5.24493 6.66675 5.33333 6.66675ZM5.33333 10.0001H8.33333C8.37711 10.0001 8.42045 10.0087 8.46089 10.0255C8.50134 10.0422 8.53808 10.0668 8.56904 10.0977C8.59999 10.1287 8.62454 10.1654 8.64129 10.2059C8.65805 10.2463 8.66667 10.2896 8.66667 10.3334V11.0001C8.66667 11.0439 8.65805 11.0872 8.64129 11.1276C8.62454 11.1681 8.59999 11.2048 8.56904 11.2358C8.53808 11.2667 8.50134 11.2913 8.46089 11.308C8.42045 11.3248 8.37711 11.3334 8.33333 11.3334H5.33333C5.24493 11.3334 5.16014 11.2983 5.09763 11.2358C5.03512 11.1733 5 11.0885 5 11.0001V10.3334C5 10.245 5.03512 10.1602 5.09763 10.0977C5.16014 10.0352 5.24493 10.0001 5.33333 10.0001Z" fill="#646A73"/>
</svg>
