<svg width="16" height="16" viewBox="0 0 16 16" fill="none" xmlns="http://www.w3.org/2000/svg">
<path d="M3.33333 1.9999V13.9994H12.6667V1.9999H3.33333ZM2.66667 0.666626H13.3333C13.7015 0.666626 14 0.979303 14 1.36501V14.6343C14 15.02 13.7015 15.3327 13.3333 15.3327H2.66667C2.29848 15.3327 2 15.02 2 14.6343V1.36501C2 0.979303 2.29848 0.666626 2.66667 0.666626ZM5 4.66646H7.66667C7.85076 4.66646 8 4.81569 8 4.99978V5.66642C8 5.85051 7.85076 5.99974 7.66667 5.99974H5C4.81591 5.99974 4.66667 5.85051 4.66667 5.66642V4.99978C4.66667 4.81569 4.81591 4.66646 5 4.66646ZM5 7.33302H11C11.1841 7.33302 11.3333 7.48225 11.3333 7.66633V8.33297C11.3333 8.51706 11.1841 8.66629 11 8.66629H5C4.81591 8.66629 4.66667 8.51706 4.66667 8.33297V7.66633C4.66667 7.48225 4.81591 7.33302 5 7.33302ZM5 9.99957H11C11.1841 9.99957 11.3333 10.1488 11.3333 10.3329V10.9995C11.3333 11.1836 11.1841 11.3328 11 11.3328H5C4.81591 11.3328 4.66667 11.1836 4.66667 10.9995V10.3329C4.66667 10.1488 4.81591 9.99957 5 9.99957Z" fill="#646A73"/>
</svg>
