<svg width="40" height="40" viewBox="0 0 40 40" fill="none" xmlns="http://www.w3.org/2000/svg">
<path d="M0 20C0 10.5719 0 5.85786 2.92893 2.92893C5.85786 0 10.5719 0 20 0C29.4281 0 34.1421 0 37.0711 2.92893C40 5.85786 40 10.5719 40 20C40 29.4281 40 34.1421 37.0711 37.0711C34.1421 40 29.4281 40 20 40C10.5719 40 5.85786 40 2.92893 37.0711C0 34.1421 0 29.4281 0 20Z" fill="#F2EBFE"/>
<path d="M24.2501 10.5C20.8001 10.5 18.0001 13.3 18.0001 16.75C18.0001 17.5 18.1501 18.2 18.3876 18.8625L10.5764 26.6737C10.5275 26.7226 10.5001 26.7888 10.5001 26.8579V29.9792C10.5001 30.2668 10.7333 30.5 11.0209 30.5H12.4793C12.7669 30.5 13.0001 30.2668 13.0001 29.9792V29.25H14.9793C15.2669 29.25 15.5001 29.0168 15.5001 28.7292V26.75H16.7501L19.2501 24.25H20.5001L22.1376 22.6125C22.8001 22.85 23.5001 23 24.2501 23C27.7001 23 30.5001 20.2 30.5001 16.75C30.5001 13.3 27.7001 10.5 24.2501 10.5ZM26.1251 16.75C25.0876 16.75 24.2501 15.9125 24.2501 14.875C24.2501 13.8375 25.0876 13 26.1251 13C27.1626 13 28.0001 13.8375 28.0001 14.875C28.0001 15.9125 27.1626 16.75 26.1251 16.75Z" fill="#7F3BF5"/>
</svg>
