<svg width="24" height="24" viewBox="0 0 24 24" fill="none" xmlns="http://www.w3.org/2000/svg">
<mask id="mask0_11576_376" style="mask-type:luminance" maskUnits="userSpaceOnUse" x="2" y="4" width="21" height="16">
<path d="M22.5208 4H2.3999V20H22.5208V4Z" fill="white"/>
</mask>
<g mask="url(#mask0_11576_376)">
<path d="M12.8551 12.4029C12.8715 12.3864 12.8891 12.3711 12.9055 12.3546C12.9395 12.3229 12.9724 12.29 13.0053 12.257L13.0733 12.1902L13.2782 11.9874L13.5567 11.7122L13.7957 11.4754L14.0204 11.2529L14.255 11.0216L14.4699 10.8089L14.7692 10.5129C14.8261 10.457 14.8843 10.4022 14.9435 10.3485C15.052 10.2487 15.1638 10.1534 15.2789 10.0613C15.3841 9.97688 15.4927 9.89568 15.6023 9.8168C15.7569 9.7072 15.9169 9.60408 16.0803 9.50768C16.2404 9.41336 16.4048 9.32456 16.5736 9.24344C16.7315 9.16672 16.8937 9.09656 17.0581 9.03184C17.1502 8.99568 17.2423 8.96168 17.3366 8.92992C17.3837 8.91344 17.4309 8.89808 17.4781 8.88384C17.056 7.22192 16.2842 5.70032 15.2438 4.4012C15.0421 4.14688 14.7329 4 14.4063 4H5.77647C5.61975 4 5.55503 4.19952 5.68111 4.2916C8.61695 6.4436 11.066 9.21824 12.8353 12.4215C12.8419 12.416 12.8485 12.4094 12.8551 12.4029Z" fill="#00D6B9"/>
<path d="M9.43246 20C13.8888 20 17.7706 17.5411 19.7965 13.9059C19.8678 13.7787 19.9369 13.6494 20.0026 13.5189C19.8996 13.7162 19.7867 13.9026 19.6628 14.078C19.6189 14.1405 19.574 14.2019 19.5269 14.2622C19.4688 14.3378 19.4085 14.4102 19.3471 14.4814C19.2977 14.5373 19.2484 14.5921 19.1969 14.6459C19.0928 14.7544 18.9842 14.8563 18.8713 14.9528C18.8088 15.0065 18.7453 15.058 18.6794 15.1085C18.6027 15.1666 18.5249 15.2225 18.446 15.2762C18.3955 15.3102 18.3451 15.3431 18.2936 15.3738C18.2398 15.4067 18.1861 15.4384 18.1302 15.4691C18.0184 15.5316 17.9044 15.5887 17.7882 15.6413C17.6873 15.6873 17.5843 15.729 17.4801 15.7673C17.3672 15.809 17.2521 15.8451 17.1359 15.878C16.9627 15.9263 16.7873 15.9635 16.6075 15.9921C16.4781 16.0118 16.3477 16.0271 16.215 16.0359C16.0769 16.0458 15.9366 16.0491 15.7952 16.0469C15.6406 16.0447 15.4849 16.0348 15.3271 16.0173C15.212 16.0052 15.0957 15.9877 14.9806 15.9679C14.8798 15.9504 14.7789 15.9285 14.677 15.9043C14.6233 15.8912 14.5706 15.878 14.5169 15.8638C14.3678 15.8232 14.2198 15.7827 14.0729 15.7399C13.9995 15.7191 13.9261 15.6971 13.8526 15.6752C13.7429 15.6423 13.6333 15.6095 13.5248 15.5755C13.436 15.5481 13.3461 15.5195 13.2573 15.4899C13.1729 15.4626 13.0885 15.4351 13.0041 15.4067C12.9471 15.3869 12.8889 15.3683 12.832 15.3486C12.7618 15.3244 12.6928 15.3003 12.6237 15.2762C12.5744 15.2587 12.5239 15.2411 12.4746 15.2236C12.3759 15.1885 12.2784 15.1523 12.1808 15.1162C12.1237 15.0953 12.0679 15.0734 12.0109 15.0515C11.9353 15.023 11.8596 14.9934 11.7839 14.9638C11.7039 14.9319 11.6249 14.9013 11.5449 14.8684C11.4934 14.8475 11.4419 14.8267 11.3904 14.8048C11.3268 14.7785 11.2621 14.7522 11.1985 14.7248C11.1492 14.7039 11.0999 14.6831 11.0505 14.6623C10.999 14.6403 10.9475 14.6184 10.897 14.5955C10.8532 14.5757 10.8082 14.5571 10.7644 14.5373C10.7238 14.5198 10.6833 14.5011 10.6427 14.4836C10.6021 14.465 10.5605 14.4463 10.52 14.4277C10.4772 14.4079 10.4355 14.3893 10.3928 14.3696C10.339 14.3443 10.2865 14.3203 10.2327 14.2951C10.1768 14.2687 10.1209 14.2424 10.0661 14.2161C10.0069 14.1876 9.94766 14.1591 9.88846 14.1295C9.83806 14.1043 9.78766 14.0802 9.73718 14.055C7.06886 12.7208 4.70094 10.9427 2.67945 8.7885C2.57859 8.68106 2.3999 8.75234 2.3999 8.89922L2.40429 16.515V17.1333C2.40429 17.4918 2.58189 17.8294 2.88007 18.0279C4.75686 19.2732 7.00966 20 9.43246 20Z" fill="#3370FF"/>
<path d="M19.7965 13.9059C19.7943 13.9091 19.7921 13.9124 19.791 13.9158L19.7965 13.9059L19.837 13.8313C19.8228 13.8566 19.8096 13.8807 19.7965 13.9059Z" fill="#133C92"/>
<path d="M19.9819 13.5573L19.9929 13.5376L19.9983 13.5277C19.9929 13.5375 19.9874 13.5474 19.9819 13.5573Z" fill="#133C92"/>
<path d="M22.5209 9.26535C21.6175 8.82031 20.6013 8.57031 19.5258 8.57031C18.8867 8.57031 18.2685 8.65799 17.683 8.82359C17.6151 8.84223 17.5482 8.86303 17.4814 8.88383C17.4342 8.89919 17.387 8.91455 17.3399 8.92991C17.2457 8.96167 17.1535 8.99567 17.0614 9.03183C16.897 9.09655 16.7348 9.16671 16.577 9.24343C16.4081 9.32455 16.2437 9.41335 16.0836 9.50767C15.9192 9.60407 15.7602 9.70719 15.6056 9.81679C15.4949 9.89463 15.3874 9.97687 15.2822 10.0613C15.1671 10.1534 15.0553 10.2498 14.9468 10.3485C14.8876 10.4022 14.8294 10.457 14.7725 10.5129L14.4732 10.8089L14.2583 11.0216L14.0237 11.2529L13.799 11.4754L13.56 11.7122L13.2815 11.9874L13.0766 12.1902L13.0086 12.257C12.9757 12.29 12.9417 12.3218 12.9088 12.3546C12.8924 12.3711 12.8748 12.3864 12.8584 12.4029C12.8332 12.427 12.8079 12.4511 12.7827 12.4752C12.7542 12.5015 12.7268 12.5278 12.6983 12.5542C11.9594 13.2327 11.1339 13.8193 10.2405 14.2939C10.2931 14.3191 10.3469 14.3444 10.4006 14.3685C10.4422 14.3882 10.485 14.4079 10.5278 14.4266C10.5683 14.4452 10.6099 14.4638 10.6505 14.4825C10.691 14.5011 10.7316 14.5186 10.7722 14.5362C10.8161 14.5559 10.861 14.5757 10.9049 14.5943C10.9564 14.6162 11.0068 14.6393 11.0583 14.6612C11.1077 14.682 11.157 14.7029 11.2063 14.7237C11.2699 14.751 11.3346 14.7774 11.3982 14.8037C11.4497 14.8246 11.5012 14.8454 11.5527 14.8673C11.6317 14.899 11.7117 14.9309 11.7917 14.9626C11.8674 14.9922 11.943 15.0218 12.0186 15.0504C12.0757 15.0723 12.1316 15.0931 12.1886 15.115C12.2862 15.1512 12.3837 15.1874 12.4824 15.2225C12.5317 15.24 12.581 15.2575 12.6314 15.2751C12.7006 15.2992 12.7707 15.3234 12.8398 15.3474C12.8967 15.3672 12.9549 15.3869 13.0118 15.4055C13.0962 15.4341 13.1807 15.4614 13.2651 15.4889C13.3539 15.5174 13.4427 15.5458 13.5326 15.5744C13.6411 15.6083 13.7507 15.6413 13.8604 15.6742C13.9338 15.6961 14.0073 15.718 14.0807 15.7388C14.2276 15.7816 14.3756 15.8232 14.5247 15.8627C14.5784 15.877 14.631 15.8912 14.6848 15.9033C14.7867 15.9274 14.8876 15.9482 14.9884 15.9668C15.1046 15.9877 15.2198 16.0041 15.3349 16.0162C15.4916 16.0337 15.6484 16.0436 15.803 16.0458C15.9444 16.048 16.0836 16.0446 16.2228 16.0348C16.3554 16.025 16.4859 16.0107 16.6153 15.991C16.795 15.9635 16.9705 15.9252 17.1437 15.877C17.2599 15.8451 17.375 15.8079 17.4879 15.7662C17.5921 15.7278 17.6951 15.6862 17.796 15.6402C17.9122 15.5875 18.0262 15.5306 18.138 15.468C18.1928 15.4374 18.2476 15.4055 18.3014 15.3726C18.3529 15.3409 18.4033 15.308 18.4538 15.2751C18.5326 15.2214 18.6105 15.1654 18.6872 15.1074C18.7519 15.057 18.8166 15.0054 18.879 14.9517C18.992 14.8552 19.1006 14.7522 19.2046 14.6447C19.2562 14.591 19.3055 14.5373 19.3549 14.4803C19.4162 14.409 19.4766 14.3367 19.5346 14.261C19.5807 14.2007 19.6267 14.1394 19.6706 14.0769C19.7934 13.9026 19.9052 13.7173 20.0071 13.5222L20.1222 13.2919L21.1659 11.2123L21.1637 11.2167C21.4915 10.4844 21.9552 9.82447 22.5209 9.26535Z" fill="#133C9A"/>
</g>
</svg>
