<svg width="28" height="28" viewBox="0 0 28 28" xmlns="http://www.w3.org/2000/svg">
<circle cx="14" cy="14" r="14" class="icon-primary"/>
<path d="M14.1567 8.55799L20.0301 12.2956C20.2102 12.4102 20.2102 12.6731 20.0301 12.7877L14.1567 16.5254C14.0612 16.5862 13.9391 16.5862 13.8435 16.5254L7.97013 12.7877C7.79003 12.6731 7.79003 12.4102 7.97013 12.2956L13.8435 8.55799C13.9391 8.49719 14.0612 8.49719 14.1567 8.55799ZM9.75652 12.5417L14.0001 15.2421L18.2437 12.5417L14.0001 9.8412L9.75652 12.5417Z" fill="white"/>
<path d="M8.51471 15.1002C8.37738 15.016 8.1978 15.0591 8.1136 15.1964L7.80868 15.6937C7.72448 15.8311 7.76755 16.0106 7.90488 16.0948L13.2454 19.3693C13.6201 19.5991 14.0884 19.5991 14.4632 19.3693L19.8037 16.0948C19.941 16.0106 19.9841 15.8311 19.8999 15.6937L19.5949 15.1964C19.5107 15.0591 19.3312 15.016 19.1938 15.1002L13.9305 18.3274C13.8837 18.3561 13.8248 18.3561 13.778 18.3274L8.51471 15.1002Z" fill="white"/>
</svg>
